<svg xmlns="http://www.w3.org/2000/svg" width="193.31" height="81.989" viewBox="0 0 547 232">
  <defs>
    <style>
      .cls-1 {
        fill: #c5c5c5;
      }

      .cls-1, .cls-2 {
        fill-rule: evenodd;
      }

      .cls-2 {
        fill: #444;
      }
    </style>
  </defs>
  <path id="phiria_Shape_Fill" data-name="phiria Shape Fill" class="cls-1" d="M129,84c12.891,0,23.137,4.133,30.363,13.084s10.84,20.947,10.84,35.986q0,25.1-12.207,40.186t-33.4,15.088h0q-19.435,0-29.981-16.8H94.227V232H78.211L78,140s0-.079,16,0l0.227,5.18a29.735,29.735,0,0,0,8.056,21.045q8.056,8.641,20.459,8.642,14.55,0,22.8-11.133t8.252-30.957q0-16.7-7.715-26.172-7.6-9.329-20.5-9.47A0.768,0.768,0,0,1,125,97c0-11.954-.09-12.986,0-13C125.612,83.905,127.294,84,129,84Zm149.8,40.379q0-40.723-33.789-40.723-21.291,0-32.813,18.946h-0.39V37.953H195.789V186h16.016V129.359q0-14.159,8.008-23.193a25.339,25.339,0,0,1,19.726-9.033q23.241,0,23.242,31.25V186H278.8V124.379ZM324.988,86H308.973V186h16.015V86Zm84.571-.391q-3.321-1.366-9.571-1.367a23.826,23.826,0,0,0-15.722,5.908q-7.032,5.91-10.45,16.455h-0.39V86H357.41V186h16.016V135.023q0-16.7,6.885-26.367t17.138-9.668q7.911,0,12.11,3.223v-16.6ZM442.957,86H426.941V186h16.016V86Zm104,34.961q0-37.3-35.254-37.3-19.24,0-33.984,9.375v16.407q14.55-12.306,32.617-12.305,20.6,0,20.605,25.488l-29.98,4.2q-33.009,4.591-33.008,32.618,0,13.086,8.447,21t23.389,7.91q20.311,0,30.762-17.969h0.39V186h16.016V120.961Zm-16.016,24.414q0,12.8-7.763,21.143a25.709,25.709,0,0,1-19.678,8.349q-8.692,0-13.916-4.638a15.261,15.261,0,0,1-5.225-11.963q0-10.057,5.664-14.014t16.8-5.518l24.121-3.32v9.961Z"/>
  <path id="A_Shape_Fill" data-name="A Shape Fill" class="cls-2" d="M70.852-.039H53.859L0.148,140H18.41l13.965-39.258H91.75L106.594,140h18.164ZM37.844,86L59.621,26.328a52.423,52.423,0,0,0,2.246-9.375h0.391a56.963,56.963,0,0,0,2.148,9.375L86.379,86H37.844Z"/>
</svg>
