<svg xmlns="http://www.w3.org/2000/svg" viewBox="0 0 687 194" width="687" height="194">
	<style>
		tspan { white-space:pre }
		.shp0 { fill: #c5c5c5 } 
		.shp1 { fill: #444444 } 
	</style>
	<g id="Aphiria Shapes">
		<path id="&quot;phiria&quot; Fill" fill-rule="evenodd" class="shp0" d="M280 0L298 0L297.99 59.5L302.34 54.5C304.74 51.75 308.46 48.29 310.6 46.82C312.75 45.35 317.65 43.14 321.5 41.92C327.15 40.14 329.95 39.81 336 40.26C340.13 40.56 346.2 41.81 349.5 43.03C353.56 44.54 356.96 46.75 360.02 49.88C362.5 52.42 365.54 56.64 366.77 59.25C368 61.86 369.51 65.91 370.12 68.25C370.83 70.92 371.39 87.28 372 152L354 152L353.5 74.5L351 69.1C349.63 66.12 347.15 62.5 345.5 61.04C343.85 59.58 340.7 57.79 338.5 57.06C335.94 56.21 331.79 55.9 327 56.2C321.54 56.54 318.07 57.4 314.25 59.34C310.92 61.03 307.7 63.74 305.45 66.75C303.49 69.36 301.15 73.75 300.25 76.5C298.89 80.67 298.56 87.37 298 152L280 152L280 0ZM124 40L168.25 40.01C202.57 40.02 213.51 40.33 217 41.38C219.47 42.12 223.53 43.76 226 45.03C228.47 46.29 232.76 49.61 235.52 52.41C238.28 55.21 241.97 60.42 243.72 64C245.48 67.58 247.82 74.1 248.94 78.5C250.35 84.05 250.97 89.79 250.98 97.25C251 104.64 250.39 110.42 249.05 115.75C247.97 120.01 246.35 125.3 245.44 127.5C244.53 129.7 241.88 134.2 239.54 137.5C237.19 140.83 232.89 145.16 229.9 147.22C226.93 149.27 222.47 151.69 220 152.6C216.98 153.7 212.37 154.25 206 154.24C199.58 154.23 194.88 153.67 191.5 152.49C188.75 151.53 184.59 149.46 182.25 147.88C179.91 146.29 176.42 142.64 170.99 134.5L171 193L153 193L153 105L171.5 104.97L172.61 110.74C173.23 113.91 175.03 119.39 176.61 122.91C178.39 126.85 181.07 130.71 183.57 132.91C185.8 134.89 189.85 137.16 192.57 137.96C195.28 138.77 200.2 139.35 203.5 139.26C207.57 139.15 211.11 138.31 214.5 136.65C217.68 135.09 220.84 132.44 223.18 129.35C225.2 126.68 227.56 122.81 228.43 120.75C229.29 118.69 230.47 114.86 231.05 112.25C231.63 109.64 232.09 102.78 232.08 97C232.06 90.7 231.41 84.1 230.46 80.5C229.59 77.2 227.67 72.3 226.19 69.6C224.71 66.91 221.7 63.21 219.5 61.37C217.3 59.54 213.25 57.35 210.5 56.51C206.35 55.24 198.54 54.98 124 55L124 40ZM515 40.08C518.02 40.02 521.97 40.32 527.05 41.5L527.02 50.25C527 58.12 526.82 58.94 525.25 58.44C524.29 58.14 521.48 57.4 519 56.8C516.4 56.16 511.97 55.99 508.5 56.39C505.2 56.76 500.48 57.98 498 59.09C495.52 60.2 492.46 62.1 491.19 63.31C489.92 64.51 487.81 67.3 486.51 69.5C485.21 71.7 483.44 76.2 482.57 79.5C481.28 84.39 480.99 91.63 481 152L463 152L463 43L481 43L481 58L486.75 52.1C489.91 48.85 494.3 45.41 496.5 44.45C498.7 43.5 502.52 42.14 505 41.45C507.48 40.75 511.98 40.13 515 40.08ZM639 40.13C643.13 40.08 649.42 40.65 653 41.4C656.58 42.14 661.98 43.98 665 45.49C668.02 46.99 671.77 49.4 673.32 50.86C674.88 52.31 677.66 55.98 679.51 59C681.36 62.02 683.57 67.42 684.42 71C685.67 76.25 685.97 84.65 686 152L669 152L669.07 135.5L664.78 140.4C662.43 143.09 658.7 146.53 656.5 148.04C654.3 149.55 650.02 151.47 647 152.31C643.98 153.16 639.02 154.13 636 154.47C632.98 154.82 627.46 154.63 623.75 154.05C620.04 153.47 614.86 151.93 612.25 150.63C609.64 149.32 606.15 147.13 604.5 145.76C602.85 144.39 600.3 141.07 598.83 138.38C597.37 135.7 595.65 130.57 595.02 127C594.19 122.28 594.16 118.65 594.94 113.75C595.52 110.04 596.9 105.2 598 103C599.1 100.8 601.28 97.54 602.86 95.75C604.43 93.96 608.59 91.05 612.11 89.28C615.62 87.5 621.99 85.37 626.25 84.53C631.41 83.51 639.86 83 669 83L668.43 78.25C668.12 75.64 666.88 71.51 665.68 69.07C664.48 66.63 661.92 63.35 660 61.78C658.08 60.22 654.02 58.18 651 57.27C647.44 56.19 642.15 55.63 636 55.67C630.57 55.7 623.72 56.45 620 57.41C616.42 58.33 611.02 60.2 608 61.57C604.98 62.94 602.39 64.04 602.25 64.03C602.11 64.01 601.99 60.29 601.95 47.5L609.22 45.23C613.23 43.99 619.88 42.35 624 41.59C628.13 40.84 634.88 40.18 639 40.13ZM408 43L426 43L426 152L408 152L408 43ZM546 43L563 43L563 152L546 152L546 43ZM635.06 97.89C632.31 98.29 628.26 99.21 626.06 99.95C623.86 100.68 620.36 102.89 618.28 104.85C615.44 107.53 614.26 109.65 613.5 113.41C612.82 116.79 612.83 120.11 613.53 123.66C614.23 127.24 615.6 130.05 617.81 132.47C619.6 134.44 623.09 136.8 625.56 137.72C628.36 138.78 632.7 139.37 637.06 139.31C642.09 139.23 645.58 138.53 649.48 136.81C652.93 135.28 656.5 132.6 659.32 129.41C661.75 126.66 664.61 122.39 665.66 119.91C666.72 117.44 668.03 112.15 668.58 108.16C669.12 104.17 669.56 100.01 669.56 98.91C669.56 97 668.94 96.92 654.81 97.04C646.7 97.1 637.81 97.49 635.06 97.89Z" />
		<path id="Right &quot;A&quot; Fill" class="shp1" d="M113.5 152.05L133.5 152.05L78.5 7L61 7L113.5 152.05Z" />
		<path id="Left &quot;A&quot; Fill" class="shp1" d="M21 152L47 77L29 77L0 152L21 152Z" />
	</g>
</svg>