<?xml version="1.0" standalone="no"?>
<!DOCTYPE svg PUBLIC "-//W3C//DTD SVG 20010904//EN"
 "http://www.w3.org/TR/2001/REC-SVG-20010904/DTD/svg10.dtd">
<svg version="1.0" xmlns="http://www.w3.org/2000/svg"
 width="160.000000pt" height="160.000000pt" viewBox="0 0 160.000000 160.000000"
 preserveAspectRatio="xMidYMid meet">
<metadata>
Created by potrace 1.11, written by Peter Selinger 2001-2013
</metadata>
<g transform="translate(0.000000,160.000000) scale(0.100000,-0.100000)"
fill="#000000" stroke="none">
<path d="M745 1513 c4 -10 43 -117 86 -238 44 -121 88 -242 99 -270 10 -27 90
-247 177 -487 l158 -438 98 0 c53 0 97 3 97 8 0 4 -25 72 -56 152 -31 80 -61
161 -68 180 -7 19 -48 127 -91 240 -43 113 -85 225 -95 250 -9 25 -66 174
-126 332 l-109 288 -89 0 c-80 0 -87 -2 -81 -17z"/>
<path d="M410 808 c-5 -13 -54 -142 -110 -288 -56 -146 -111 -287 -122 -315
-11 -27 -26 -66 -34 -87 l-13 -38 103 0 c90 0 105 2 111 18 4 9 24 67 45 127
153 441 199 572 205 588 6 15 -1 17 -84 17 -85 0 -92 -1 -101 -22z"/>
</g>
</svg>
